# xmcd
#
# Track frame offsets: 
#        150
#        11185
#        31502
#        45287
#        56135
#        65862
#        76315
#        96207
#        109970
#        121592
#
# Disc length: 1796 seconds
#
# Revision: 0
# Processed by: cddbd v1.5.2PL0 Copyright (c) Steve Scherf et al.
# Submitted via: ExactAudioCopy v0.99pb5
#
DISCID=7a07020a
DTITLE=Various Artist - 50 Years Of Country Music!
DYEAR=1997
DGENRE=Country
TTITLE0=Tender Years
TTITLE1=You're So Good When You're Bad
TTITLE2=For The Kids
TTITLE3=Remember I'm As Close As The Phone
TTITLE4=Black Mountain Rag
TTITLE5=Dear John Letter
TTITLE6=Little Joe
TTITLE7=Unchained Melody
TTITLE8=Today I Started Loving You Again
TTITLE9=Stolen Moments
EXTD=
EXTT0=
EXTT1=
EXTT2=
EXTT3=
EXTT4=
EXTT5=
EXTT6=
EXTT7=
EXTT8=
EXTT9=
PLAYORDER=
